HIERARCHY
ROOT Hips
{
  OFFSET -256.319 73.7216 703.806
  CHANNELS 6 Xposition Yposition Zposition Zrotation Xrotation Yrotation
  JOINT Spine
  {
    OFFSET 0 8 -2.48978e-05
    CHANNELS 6 Xposition Yposition Zposition Zrotation Xrotation Yrotation
    JOINT Spine1
    {
      OFFSET -1.04432e-05 8 0
      CHANNELS 6 Xposition Yposition Zposition Zrotation Xrotation Yrotation
      JOINT Spine2
      {
        OFFSET 1.37142e-05 8 4.96604e-05
        CHANNELS 6 Xposition Yposition Zposition Zrotation Xrotation Yrotation
        JOINT Spine3
        {
          OFFSET 0 8 0
          CHANNELS 6 Xposition Yposition Zposition Zrotation Xrotation Yrotation
          JOINT Neck
          {
            OFFSET 1.15215e-05 17.0002 -0.000130755
            CHANNELS 6 Xposition Yposition Zposition Zrotation Xrotation Yrotation
            JOINT Head
            {
              OFFSET 0 10.8 -3.78314e-05
              CHANNELS 6 Xposition Yposition Zposition Zrotation Xrotation Yrotation
              End Site
              {
                OFFSET 0 20.25 0
              }
            }
          }
          JOINT LeftShoulder
          {
            OFFSET 5.00001 17 0
            CHANNELS 6 Xposition Yposition Zposition Zrotation Xrotation Yrotation
            JOINT LeftShoulder2
            {
              OFFSET 6.45 0 0
              CHANNELS 6 Xposition Yposition Zposition Zrotation Xrotation Yrotation
              JOINT LeftArm
              {
                OFFSET 6.45 0 0
                CHANNELS 6 Xposition Yposition Zposition Zrotation Xrotation Yrotation
                JOINT LeftForeArm
                {
                  OFFSET 0 -32.4 -2.00004
                  CHANNELS 6 Xposition Yposition Zposition Zrotation Xrotation Yrotation
                  JOINT LeftHand
                  {
                    OFFSET -1.06617e-05 -25.65 1.99998
                    CHANNELS 6 Xposition Yposition Zposition Zrotation Xrotation Yrotation
                    JOINT LeftHandThumb1
                    {
                      OFFSET -0.49997 -1.49999 2.65001
                      CHANNELS 6 Xposition Yposition Zposition Zrotation Xrotation Yrotation
                      JOINT LeftHandThumb2
                      {
                        OFFSET 0 -3.79999 3.70002
                        CHANNELS 6 Xposition Yposition Zposition Zrotation Xrotation Yrotation
                        JOINT LeftHandThumb3
                        {
                          OFFSET 0 -2.99999 2.7
                          CHANNELS 6 Xposition Yposition Zposition Zrotation Xrotation Yrotation
                          End Site
                          {
                            OFFSET 0 -2.30002 1.79999
                          }
                        }
                      }
                    }
                    JOINT LeftHandIndex
                    {
                      OFFSET 1.59597e-05 -1.9 1.60001
                      CHANNELS 6 Xposition Yposition Zposition Zrotation Xrotation Yrotation
                      JOINT LeftHandIndex1
                      {
                        OFFSET 1.43343e-05 -8.29998 1.90001
                        CHANNELS 6 Xposition Yposition Zposition Zrotation Xrotation Yrotation
                        JOINT LeftHandIndex2
                        {
                          OFFSET 4.73905e-05 -4.50001 0
                          CHANNELS 6 Xposition Yposition Zposition Zrotation Xrotation Yrotation
                          JOINT LeftHandIndex3
                          {
                            OFFSET 0 -3.40003 -1.26661e-05
                            CHANNELS 6 Xposition Yposition Zposition Zrotation Xrotation Yrotation
                            End Site
                            {
                              OFFSET 0 -2.6 0
                            }
                          }
                        }
                      }
                    }
                    JOINT LeftHandMiddle
                    {
                      OFFSET -0.249951 -2.19997 0.400023
                      CHANNELS 6 Xposition Yposition Zposition Zrotation Xrotation Yrotation
                      JOINT LeftHandMiddle1
                      {
                        OFFSET -3.69971e-05 -8.30004 0.99999
                        CHANNELS 6 Xposition Yposition Zposition Zrotation Xrotation Yrotation
                        JOINT LeftHandMiddle2
                        {
                          OFFSET 2.24188e-05 -4.64997 0
                          CHANNELS 6 Xposition Yposition Zposition Zrotation Xrotation Yrotation
                          JOINT LeftHandMiddle3
                          {
                            OFFSET 0 -3.30002 0
                            CHANNELS 6 Xposition Yposition Zposition Zrotation Xrotation Yrotation
                            End Site
                            {
                              OFFSET -4.84866e-05 -2.7 0
                            }
                          }
                        }
                      }
                    }
                    JOINT LeftHandRing
                    {
                      OFFSET -0.49998 -2.15001 -0.799976
                      CHANNELS 6 Xposition Yposition Zposition Zrotation Xrotation Yrotation
                      JOINT LeftHandRing1
                      {
                        OFFSET 0 -7.75 -0.200016
                        CHANNELS 6 Xposition Yposition Zposition Zrotation Xrotation Yrotation
                        JOINT LeftHandRing2
                        {
                          OFFSET 0 -3.8 1.83814e-05
                          CHANNELS 6 Xposition Yposition Zposition Zrotation Xrotation Yrotation
                          JOINT LeftHandRing3
                          {
                            OFFSET -2.07163e-05 -3.39998 -2.69478e-05
                            CHANNELS 6 Xposition Yposition Zposition Zrotation Xrotation Yrotation
                            End Site
                            {
                              OFFSET 4.52777e-05 -2.59999 1.2825e-05
                            }
                          }
                        }
                      }
                    }
                    JOINT LeftHandPinky
                    {
                      OFFSET -0.749984 -1.75001 -1.84998
                      CHANNELS 6 Xposition Yposition Zposition Zrotation Xrotation Yrotation
                      JOINT LeftHandPinky1
                      {
                        OFFSET -1.01868e-05 -7.15 -0.999997
                        CHANNELS 6 Xposition Yposition Zposition Zrotation Xrotation Yrotation
                        JOINT LeftHandPinky2
                        {
                          OFFSET 0 -2.99998 -1.1881e-05
                          CHANNELS 6 Xposition Yposition Zposition Zrotation Xrotation Yrotation
                          JOINT LeftHandPinky3
                          {
                            OFFSET 2.54022e-05 -2.35001 0
                            CHANNELS 6 Xposition Yposition Zposition Zrotation Xrotation Yrotation
                            End Site
                            {
                              OFFSET 0 -2.09999 0
                            }
                          }
                        }
                      }
                    }
                  }
                }
              }
            }
          }
          JOINT RightShoulder
          {
            OFFSET -5.00002 17 -1.65143e-05
            CHANNELS 6 Xposition Yposition Zposition Zrotation Xrotation Yrotation
            JOINT RightShoulder2
            {
              OFFSET -6.45 0 0
              CHANNELS 6 Xposition Yposition Zposition Zrotation Xrotation Yrotation
              JOINT RightArm
              {
                OFFSET -6.45 0 0
                CHANNELS 6 Xposition Yposition Zposition Zrotation Xrotation Yrotation
                JOINT RightForeArm
                {
                  OFFSET -2.95779e-05 -32.4 -2.00002
                  CHANNELS 6 Xposition Yposition Zposition Zrotation Xrotation Yrotation
                  JOINT RightHand
                  {
                    OFFSET -1.04762e-05 -25.65 2
                    CHANNELS 6 Xposition Yposition Zposition Zrotation Xrotation Yrotation
                    JOINT RightHandThumb1
                    {
                      OFFSET 0.49998 -1.50001 2.65001
                      CHANNELS 6 Xposition Yposition Zposition Zrotation Xrotation Yrotation
                      JOINT RightHandThumb2
                      {
                        OFFSET 2.47037e-05 -3.80002 3.69998
                        CHANNELS 6 Xposition Yposition Zposition Zrotation Xrotation Yrotation
                        JOINT RightHandThumb3
                        {
                          OFFSET 0 -3.00001 2.69998
                          CHANNELS 6 Xposition Yposition Zposition Zrotation Xrotation Yrotation
                          End Site
                          {
                            OFFSET 0 -2.30001 1.79999
                          }
                        }
                      }
                    }
                    JOINT RightHandIndex
                    {
                      OFFSET -1.0231e-05 -1.9 1.6
                      CHANNELS 6 Xposition Yposition Zposition Zrotation Xrotation Yrotation
                      JOINT RightHandIndex1
                      {
                        OFFSET 2.52626e-05 -8.30002 1.89991
                        CHANNELS 6 Xposition Yposition Zposition Zrotation Xrotation Yrotation
                        JOINT RightHandIndex2
                        {
                          OFFSET -1.26514e-05 -4.50001 -1.15982e-05
                          CHANNELS 6 Xposition Yposition Zposition Zrotation Xrotation Yrotation
                          JOINT RightHandIndex3
                          {
                            OFFSET 5.905e-05 -3.39999 0
                            CHANNELS 6 Xposition Yposition Zposition Zrotation Xrotation Yrotation
                            End Site
                            {
                              OFFSET 0 -2.59999 1.24745e-05
                            }
                          }
                        }
                      }
                    }
                    JOINT RightHandMiddle
                    {
                      OFFSET 0.250005 -2.20003 0.39996
                      CHANNELS 6 Xposition Yposition Zposition Zrotation Xrotation Yrotation
                      JOINT RightHandMiddle1
                      {
                        OFFSET -1.91297e-05 -8.29998 1.00004
                        CHANNELS 6 Xposition Yposition Zposition Zrotation Xrotation Yrotation
                        JOINT RightHandMiddle2
                        {
                          OFFSET -5.79348e-05 -4.65 0
                          CHANNELS 6 Xposition Yposition Zposition Zrotation Xrotation Yrotation
                          JOINT RightHandMiddle3
                          {
                            OFFSET 1.81383e-05 -3.3 0
                            CHANNELS 6 Xposition Yposition Zposition Zrotation Xrotation Yrotation
                            End Site
                            {
                              OFFSET 2.03477e-05 -2.69999 0
                            }
                          }
                        }
                      }
                    }
                    JOINT RightHandRing
                    {
                      OFFSET 0.5 -2.15002 -0.800018
                      CHANNELS 6 Xposition Yposition Zposition Zrotation Xrotation Yrotation
                      JOINT RightHandRing1
                      {
                        OFFSET 0 -7.75 -0.199999
                        CHANNELS 6 Xposition Yposition Zposition Zrotation Xrotation Yrotation
                        JOINT RightHandRing2
                        {
                          OFFSET 0 -3.80002 0
                          CHANNELS 6 Xposition Yposition Zposition Zrotation Xrotation Yrotation
                          JOINT RightHandRing3
                          {
                            OFFSET 0 -3.39996 2.2131e-05
                            CHANNELS 6 Xposition Yposition Zposition Zrotation Xrotation Yrotation
                            End Site
                            {
                              OFFSET 0 -2.6 0
                            }
                          }
                        }
                      }
                    }
                    JOINT RightHandPinky
                    {
                      OFFSET 0.749984 -1.75001 -1.85
                      CHANNELS 6 Xposition Yposition Zposition Zrotation Xrotation Yrotation
                      JOINT RightHandPinky1
                      {
                        OFFSET 1.71334e-05 -7.15 -1.00002
                        CHANNELS 6 Xposition Yposition Zposition Zrotation Xrotation Yrotation
                        JOINT RightHandPinky2
                        {
                          OFFSET 0 -3.00001 0
                          CHANNELS 6 Xposition Yposition Zposition Zrotation Xrotation Yrotation
                          JOINT RightHandPinky3
                          {
                            OFFSET 0 -2.35002 -1.21269e-05
                            CHANNELS 6 Xposition Yposition Zposition Zrotation Xrotation Yrotation
                            End Site
                            {
                              OFFSET 0 -2.09994 -1.4741e-05
                            }
                          }
                        }
                      }
                    }
                  }
                }
              }
            }
          }
        }
      }
    }
  }
  JOINT LeftUpLeg
  {
    OFFSET 8.00001 0 -2.57052e-05
    CHANNELS 6 Xposition Yposition Zposition Zrotation Xrotation Yrotation
    JOINT LeftLeg
    {
      OFFSET -3.75481e-05 -45 -0.999989
      CHANNELS 6 Xposition Yposition Zposition Zrotation Xrotation Yrotation
      JOINT LeftFoot
      {
        OFFSET 0 -41 -1.99999
        CHANNELS 6 Xposition Yposition Zposition Zrotation Xrotation Yrotation
        JOINT LeftToeBase
        {
          OFFSET -1.60171e-05 -7.5 12.5
          CHANNELS 6 Xposition Yposition Zposition Zrotation Xrotation Yrotation
          JOINT LeftFootToe
          {
            OFFSET 0 0 4
            CHANNELS 6 Xposition Yposition Zposition Zrotation Xrotation Yrotation
            End Site
            {
              OFFSET 0 0 0
            }
          }
        }
      }
    }
  }
  JOINT RightUpLeg
  {
    OFFSET -8 0 2.72962e-05
    CHANNELS 6 Xposition Yposition Zposition Zrotation Xrotation Yrotation
    JOINT RightLeg
    {
      OFFSET 0 -44.9999 -1.00005
      CHANNELS 6 Xposition Yposition Zposition Zrotation Xrotation Yrotation
      JOINT RightFoot
      {
        OFFSET 0 -41.0001 -1.99999
        CHANNELS 6 Xposition Yposition Zposition Zrotation Xrotation Yrotation
        JOINT RightToeBase
        {
          OFFSET -2.13174e-05 -7.5 12.5
          CHANNELS 6 Xposition Yposition Zposition Zrotation Xrotation Yrotation
          JOINT RightFootToe
          {
            OFFSET 0 0 4
            CHANNELS 6 Xposition Yposition Zposition Zrotation Xrotation Yrotation
            End Site
            {
              OFFSET 0 0 0
            }
          }
        }
      }
    }
  }
}
MOTION
Frames:	3
Frame Time:	0.0111111
-257.475 73.9732 702.36 -6.56301 14.9471 -175.764 0 8 0 6.65611 12.3939 -16.2244 0 8 -1.13687e-13 1.96759 7.4304 0.868393 -2.84217e-14 8 -1.13687e-13 0.996995 3.71576 0.464275 0 8 0 0.994019 3.70723 0.460756 0 17 0 -2.64374 -1.88704 -6.25211 0 10.8 0 -6.48595 -3.94563 -14.769 5 17 0 -1.48932 -1.02941 20.4169 6.45 0 0 -1.01818 0.258341 2.58688 6.45 -4.26326e-14 -1.13687e-13 45.4442 -25.659 -14.8429 -5.68434e-14 -32.4 -2 -57.2894 -61.4166 -70.562 0 -25.65 2 25.347 -20.6328 -21.2464 -0.5 -1.5 2.65 1.83024 -24.2681 -7.11795 0 -3.8 3.7 0.00459355 0.550023 -0.0204303 2.84217e-14 -3 2.7 -0.140487 68.1234 0.128238 0 -1.9 1.6 -5.96354e-15 0 -3.37934e-15 -1.42109e-14 -8.3 1.9 -2.17256 8.65083 0.396138 0 -4.5 0 -0.000313688 0.0351618 -0.00117743 7.10543e-15 -3.4 2.84217e-14 -9.82535e-06 0.0329568 -0.0011445 -0.25 -2.2 0.4 -5.96354e-15 0 -3.37934e-15 -2.84217e-14 -8.3 1 -3.50036 11.8951 0.816406 1.42109e-14 -4.65 0 -0.00166111 0.0631852 -0.053918 -7.10543e-15 -3.3 -2.84217e-14 9.22726e-05 0.062459 -0.0532244 -0.5 -2.15 -0.8 -5.96354e-15 0 -3.37934e-15 0 -7.75 -0.2 -6.57393 18.0633 1.9167 2.84217e-14 -3.8 0 7.42455e-05 0.0114774 -0.0180557 0 -3.4 8.52651e-14 2.12306e-06 -0.00903807 -0.0176907 -0.75 -1.75 -1.85 -5.96354e-15 0 -3.37934e-15 -1.42109e-14 -7.15 -1 -8.54402 23.2872 2.9792 1.42109e-14 -3 0 -0.029776 -7.63123e-05 -2.22065e-05 -5.68434e-14 -2.35 -5.68434e-14 -1.12648e-07 -3.53226e-05 3.29688e-05 -5 17 0 1.54026 -3.67385 9.77074 -6.45 0 1.13687e-13 -2.27429 1.58466 -4.02216 -6.45 2.84217e-14 1.13687e-13 -12.5011 -19.5756 3.09825 0 -32.4 -2 -44.914 -19.8856 -76.9587 0 -25.65 2 52.3168 10.9051 -32.6731 0.5 -1.5 2.65 8.43226 -5.67464 4.09217 1.42109e-14 -3.8 3.7 0.326355 8.27124 -0.118083 0 -3 2.7 -0.0236592 2.15293 0.0327187 5.68434e-14 -1.9 1.6 3.18055e-15 7.95139e-15 6.36111e-15 0 -8.3 1.9 4.11897 -16.3711 0.440412 -2.84217e-14 -4.5 1.42109e-14 3.04507 -0.936038 0.0421066 1.42109e-14 -3.4 2.84217e-14 -0.000173791 -0.921977 -0.0108817 0.25 -2.2 0.4 3.18055e-15 7.95139e-15 6.36111e-15 2.84217e-14 -8.3 1 3.089 -11.7329 0.192653 0 -4.65 5.68434e-14 2.10109 0.0435402 -0.461423 2.84217e-14 -3.3 5.68434e-14 -0.000836299 -0.134338 -0.373766 0.5 -2.15 -0.8 3.18055e-15 7.95139e-15 6.36111e-15 0 -7.75 -0.2 1.14222 -2.24018 -0.0377948 -1.42109e-14 -3.8 0 0.015846 -0.619687 -0.6374 0 -3.4 5.68434e-14 -0.00668934 -0.611636 -0.628741 0.75 -1.75 -1.85 3.18055e-15 7.95139e-15 6.36111e-15 0 -7.15 -1 0.142039 3.22608 -0.0286711 0 -3 0 0.00279348 -0.445651 -0.419554 -2.84217e-14 -2.35 0 -0.000364999 -0.813698 -0.303139 8 2.84217e-14 0 8.32371 -39.0187 13.1987 -5.68434e-14 -45 -1 -2.23442 42.3313 -9.5411 0 -41 -2 -3.64578 9.28799 9.92737 0 -7.5 12.5 -1.6575e-08 4.29319e-05 9.40369e-07 0 0 4 0.437145 -15.0386 35.4641 -8 0 1.13687e-13 2.85878 -45.5444 8.46602 0 -45 -1 -26.7204 80.3333 32.4028 -5.68434e-14 -41 -2 -4.51214 0.805617 18.6341 0 -7.5 12.5 8.65683e-07 -1.39268 1.88033e-08 0 -2.84217e-14 4 -1.67312 1.9602 19.2866 
-257.47 73.9697 702.361 -6.56712 14.9692 -175.756 -5.68434e-14 8 0 6.63556 12.3935 -16.2249 2.84217e-14 8 0 1.96131 7.41434 0.870602 -5.68434e-14 8 0 0.994338 3.70771 0.46443 2.84217e-14 8 0 0.990918 3.69927 0.461051 -5.68434e-14 17 0 -2.54491 -1.8628 -6.33305 2.84217e-14 10.8 0 -6.25492 -3.90035 -14.9528 5 17 0 -1.49287 -1.04606 20.3268 6.45 1.42109e-14 -1.13687e-13 -1.01768 0.257918 2.58741 6.45 -1.42109e-14 1.13687e-13 45.6336 -25.3151 -14.6667 -2.84217e-14 -32.4 -2 -57.9735 -61.4074 -71.2892 -5.68434e-14 -25.65 2 25.3319 -20.6744 -21.0392 -0.5 -1.5 2.65 1.68425 -24.3401 -7.12025 -2.84217e-14 -3.8 3.7 0.0047516 0.3335 -0.0201707 2.84217e-14 -3 2.7 -0.140329 68.2377 0.128267 0 -1.9 1.6 -5.56597e-15 0 -1.98785e-15 -2.84217e-14 -8.3 1.9 -2.21502 8.65437 0.400053 7.10543e-15 -4.5 -2.84217e-14 -0.000314906 0.0327218 -0.000940522 0 -3.4 0 -1.05589e-05 0.0304682 -0.000910615 -0.25 -2.2 0.4 -5.56597e-15 0 -1.98785e-15 -2.84217e-14 -8.3 1 -3.39584 11.8072 0.782111 2.84217e-14 -4.65 -2.84217e-14 -0.0016625 0.0622229 -0.0539277 -2.13163e-14 -3.3 0 9.11621e-05 0.0615063 -0.0531047 -0.5 -2.15 -0.8 -5.56597e-15 0 -1.98785e-15 7.10543e-15 -7.75 -0.2 -6.13755 17.5788 1.75581 2.84217e-14 -3.8 0 7.63764e-05 0.0114553 -0.0159904 0 -3.4 2.84217e-14 3.79441e-06 -0.00860824 -0.0156641 -0.75 -1.75 -1.85 -5.56597e-15 0 -1.98785e-15 0 -7.15 -1 -7.86983 22.55 2.68771 0 -3 0 -0.0297767 -7.70502e-05 -2.15298e-05 -4.26326e-14 -2.35 0 -2.98786e-08 -3.45172e-05 3.20544e-05 -5 17 1.13687e-13 1.60128 -3.6932 9.8147 -6.45 -1.42109e-14 -1.13687e-13 -2.27376 1.58887 -4.03201 -6.45 2.84217e-14 0 -12.57 -19.4896 3.02525 5.68434e-14 -32.4 -2 -44.9629 -19.7826 -76.9322 0 -25.65 2 52.4862 10.8079 -32.6095 0.5 -1.5 2.65 8.3987 -5.68227 4.04415 1.42109e-14 -3.8 3.7 0.328955 8.38045 -0.118875 0 -3 2.7 -0.0237075 2.34751 0.0326449 2.84217e-14 -1.9 1.6 -1.76556e-31 3.18055e-15 3.18055e-15 2.84217e-14 -8.3 1.9 4.17608 -16.4778 0.450607 0 -4.5 1.42109e-14 3.0451 -0.937088 0.0421182 2.84217e-14 -3.4 2.84217e-14 -0.000174118 -0.923008 -0.0108898 0.25 -2.2 0.4 -1.76556e-31 3.18055e-15 3.18055e-15 0 -8.3 1 3.12937 -11.8357 0.198171 2.84217e-14 -4.65 2.84217e-14 2.10136 0.0436678 -0.46213 1.42109e-14 -3.3 2.84217e-14 -0.000838357 -0.134487 -0.37423 0.5 -2.15 -0.8 -1.76556e-31 3.18055e-15 3.18055e-15 -5.68434e-14 -7.75 -0.2 1.15228 -2.33449 -0.0378245 0 -3.8 0 0.0158413 -0.62026 -0.637986 -2.84217e-14 -3.4 5.68434e-14 -0.00670177 -0.612199 -0.629326 0.75 -1.75 -1.85 -1.76556e-31 3.18055e-15 3.18055e-15 -2.84217e-14 -7.15 -1 0.136047 3.14267 -0.0286692 -1.42109e-14 -3 0 0.00279852 -0.446169 -0.421288 2.84217e-14 -2.35 5.68434e-14 -0.00034948 -0.813714 -0.304087 8 0 -1.13687e-13 8.32808 -39.0028 13.1977 0 -45 -1 -2.23811 42.3376 -9.53609 5.68434e-14 -41 -2 -3.64271 9.29986 9.90932 0 -7.5 12.5 -1.6575e-08 4.29319e-05 9.40369e-07 -5.68434e-14 -7.10543e-15 4 0.434862 -15.0511 35.4639 -8 0 -1.13687e-13 2.87114 -45.5217 8.47373 0 -45 -1 -26.7322 80.3363 32.4121 0 -41 -2 -4.51284 0.809586 18.6175 0 -7.5 12.5 8.65697e-07 -1.43382 1.88036e-08 0 0 4 -1.68079 2.00087 19.2874 
-257.462 73.967 702.363 -6.5716 14.9909 -175.747 5.68434e-14 8 0 6.61289 12.3932 -16.2254 0 8 0 1.95428 7.39835 0.872428 -2.84217e-14 8 0 0.990965 3.6997 0.464488 2.84217e-14 8 1.13687e-13 0.987664 3.69119 0.461318 0 17 -1.13687e-13 -2.43141 -1.83605 -6.42043 -2.84217e-14 10.8 0 -5.98948 -3.85189 -15.151 5 17 0 -1.49171 -1.05847 20.2479 6.45 0 0 -1.01706 0.25751 2.58799 6.45 -4.26326e-14 0 45.8091 -24.9629 -14.47 -5.68434e-14 -32.4 -2 -58.7693 -61.4153 -72.1421 5.68434e-14 -25.65 2 25.3422 -20.6872 -20.9432 -0.5 -1.5 2.65 1.50909 -24.3964 -7.15185 -2.84217e-14 -3.8 3.7 0.0049358 0.181667 -0.0199135 2.84217e-14 -3 2.7 -0.139976 68.3239 0.128138 -1.42109e-14 -1.9 1.6 -7.15625e-15 -3.18055e-15 -1.59028e-15 -1.42109e-14 -8.3 1.9 -2.23022 8.72909 0.404481 1.42109e-14 -4.5 0 0.00848186 0.0302533 -0.00105585 7.10543e-15 -3.4 0 0.0085632 0.0279489 -0.00101937 -0.25 -2.2 0.4 -7.15625e-15 -3.18055e-15 -1.59028e-15 -1.42109e-14 -8.3 1 -3.32668 11.8275 0.763287 2.13163e-14 -4.65 2.84217e-14 -0.00166395 0.0612534 -0.0538661 -1.42109e-14 -3.3 0 9.00194e-05 0.060543 -0.052962 -0.5 -2.15 -0.8 -7.15625e-15 -3.18055e-15 -1.59028e-15 -7.10543e-15 -7.75 -0.2 -5.86614 17.2846 1.65645 2.84217e-14 -3.8 -2.84217e-14 7.29037e-05 0.0114313 -0.0138939 2.84217e-14 -3.4 0 5.1674e-06 -0.00811228 -0.0136132 -0.75 -1.75 -1.85 -7.15625e-15 -3.18055e-15 -1.59028e-15 -7.10543e-15 -7.15 -1 -7.45238 22.1024 2.5087 -1.42109e-14 -3 5.68434e-14 -0.0297773 -7.7722e-05 -2.08728e-05 -4.26326e-14 -2.35 0 3.40057e-08 -3.37134e-05 3.11425e-05 -5 17 0 1.66129 -3.70605 9.86829 -6.45 0 0 -2.27353 1.58897 -4.04025 -6.45 2.84217e-14 0 -12.6326 -19.4032 2.95185 0 -32.4 -2 -45.0208 -19.6843 -76.9273 0 -25.65 2 52.6253 10.7287 -32.5524 0.5 -1.5 2.65 8.35912 -5.69629 4.00448 0 -3.8 3.7 0.330736 8.48124 -0.119612 1.42109e-14 -3 2.7 -0.0237334 2.50706 0.0325707 2.84217e-14 -1.9 1.6 9.54166e-15 7.95139e-15 2.38542e-15 0 -8.3 1.9 4.19676 -16.5179 0.453537 -2.84217e-14 -4.5 -4.26326e-14 3.04513 -0.93814 0.0421297 2.84217e-14 -3.4 -1.42109e-14 -0.000174444 -0.924039 -0.0108979 0.25 -2.2 0.4 9.54166e-15 7.95139e-15 2.38542e-15 0 -8.3 1 3.14358 -11.8946 0.200182 2.84217e-14 -4.65 2.84217e-14 2.10164 0.0437953 -0.462835 2.84217e-14 -3.3 -2.84217e-14 -0.000840406 -0.134634 -0.374692 0.5 -2.15 -0.8 9.54166e-15 7.95139e-15 2.38542e-15 -2.84217e-14 -7.75 -0.2 1.15267 -2.42918 -0.0378531 -2.84217e-14 -3.8 0 0.0158366 -0.620827 -0.638571 0 -3.4 0 -0.00671418 -0.612761 -0.629909 0.75 -1.75 -1.85 9.54166e-15 7.95139e-15 2.38542e-15 -7.10543e-14 -7.15 -1 0.127503 3.03389 -0.0286652 1.42109e-14 -3 0 0.00280371 -0.446687 -0.423004 -1.42109e-14 -2.35 0 -0.000333764 -0.813729 -0.305029 8 2.84217e-14 0 8.33246 -38.9864 13.1957 -5.68434e-14 -45 -1 -2.24095 42.3387 -9.53332 5.68434e-14 -41 -2 -3.64197 9.33073 9.89592 0 -7.5 12.5 -1.6575e-08 4.29319e-05 9.40369e-07 0 -7.10543e-15 4 0.430148 -15.0755 35.4639 -8 0 1.13687e-13 2.88429 -45.5009 8.47977 0 -45 -1 -26.7448 80.3399 32.4235 0 -41 -2 -4.5133 0.811812 18.6063 0 -7.5 12.5 8.657e-07 -1.44378 1.88037e-08 0 0 4 -1.68828 2.01241 19.2879 
